<?xml version="1.0" encoding="UTF-8"?>
<svg width="26px" height="45px" viewBox="0 0 26 45" version="1.1" xmlns="http://www.w3.org/2000/svg" xmlns:xlink="http://www.w3.org/1999/xlink">
    <!-- Generator: Sketch 52.2 (67145) - http://www.bohemiancoding.com/sketch -->
    <title>Group 2</title>
    <desc>Created with Sketch.</desc>
    <defs>
        <rect id="path-1" x="0" y="0" width="16" height="45"></rect>
        <polygon id="path-3" points="16.987971 0.596390944 29 0 29 46 0.145092563 47"></polygon>
    </defs>
    <g id="Page-1" stroke="none" stroke-width="1" fill="none" fill-rule="evenodd">
        <g id="login" transform="translate(-33.000000, -29.000000)">
            <g id="Group-2" transform="translate(25.000000, 29.000000)">
                <g id="Group-3" transform="translate(0.000000, 4.000000)">
                    <mask id="mask-2" fill="white">
                        <use xlink:href="#path-1"></use>
                    </mask>
                    <g id="Rectangle" fill-rule="nonzero"></g>
                    <path d="M15,6.5 C11.9624339,6.5 9.5,8.96243388 9.5,12 L9.5,35 C9.5,35.8284271 10.1715729,36.5 11,36.5 L31,36.5 C31.8284271,36.5 32.5,35.8284271 32.5,35 L32.5,12 C32.5,8.96243388 30.0375661,6.5 27,6.5 L15,6.5 Z" id="Rectangle" stroke="#FFFFFF" stroke-width="3" fill-rule="nonzero" mask="url(#mask-2)"></path>
                </g>
                <g id="Group" transform="translate(11.000000, 0.000000)">
                    <mask id="mask-4" fill="white">
                        <use xlink:href="#path-3"></use>
                    </mask>
                    <g id="Rectangle" fill-rule="nonzero"></g>
                    <path d="M14,12 C11.790861,12 10,13.790861 10,16 L2.59748833,39 L20,39 L20,16 C20,13.790861 18.209139,12 16,12 L14,12 Z M14,9 L16,9 C19.8659932,9 23,12.1340068 23,16 L23,39 C23,40.6568542 21.6568542,42 20,42 L1,42 C-0.656854249,42 -3.50876059,40.6568542 -3.50876059,39 L7,16 C7,12.1340068 10.1340068,9 14,9 Z" id="Rectangle" fill="#FFFFFF" fill-rule="nonzero" mask="url(#mask-4)"></path>
                </g>
                <path d="M21,1.5 C18.5147186,1.5 16.5,3.51471863 16.5,6 L16.5,17 C16.5,19.4852814 18.5147186,21.5 21,21.5 C23.4852814,21.5 25.5,19.4852814 25.5,17 L25.5,6 C25.5,3.51471863 23.4852814,1.5 21,1.5 Z" id="Rectangle" stroke="#FFFFFF" stroke-width="3" fill-rule="nonzero"></path>
                <path d="M16.5,14.6182688 L25.5,10.3071482 L25.5,6 C25.5,3.51471863 23.4852814,1.5 21,1.5 C18.5147186,1.5 16.5,3.51471863 16.5,6 L16.5,14.6182688 Z" id="Rectangle" stroke="#FFFFFF" stroke-width="3" fill-rule="nonzero"></path>
                <circle id="Oval" fill="#FFFFFF" fill-rule="nonzero" cx="14" cy="42" r="3"></circle>
                <circle id="Oval" fill="#FFFFFF" fill-rule="nonzero" cx="28" cy="42" r="3"></circle>
            </g>
        </g>
    </g>
</svg>